<?xml version="1.0" encoding="UTF-8" standalone="no"?>
<svg
   xmlns:dc="http://purl.org/dc/elements/1.1/"
   xmlns:cc="http://creativecommons.org/ns#"
   xmlns:rdf="http://www.w3.org/1999/02/22-rdf-syntax-ns#"
   xmlns:svg="http://www.w3.org/2000/svg"
   xmlns="http://www.w3.org/2000/svg"
   xmlns:sodipodi="http://sodipodi.sourceforge.net/DTD/sodipodi-0.dtd"
   xmlns:inkscape="http://www.inkscape.org/namespaces/inkscape"
   inkscape:export-ydpi="491.51999"
   inkscape:export-xdpi="491.51999"
   inkscape:export-filename="/home/jasper/Projects/brain-wall/assets/logo.png"
   sodipodi:docname="logo.svg"
   inkscape:version="1.0 (4035a4fb49, 2020-05-01)"
   id="svg8"
   version="1.1"
   viewBox="0 0 26.458335 26.458332"
   height="100"
   width="100">
  <defs
     id="defs2" />
  <sodipodi:namedview
     inkscape:window-maximized="0"
     inkscape:window-y="37"
     inkscape:window-x="868"
     inkscape:window-height="1356"
     inkscape:window-width="1533"
     units="px"
     fit-margin-bottom="2"
     fit-margin-right="2"
     fit-margin-left="2"
     fit-margin-top="2"
     inkscape:guide-bbox="true"
     showguides="false"
     showgrid="true"
     inkscape:document-rotation="0"
     inkscape:current-layer="layer1"
     inkscape:document-units="mm"
     inkscape:cy="70.87154"
     inkscape:cx="18.579399"
     inkscape:zoom="8.2599888"
     inkscape:pageshadow="2"
     inkscape:pageopacity="1"
     borderopacity="1.0"
     bordercolor="#666666"
     pagecolor="#2e0f4d"
     id="base">
    <inkscape:grid
       originy="-6.9958334"
       originx="-7.2604166"
       id="grid10"
       type="xygrid" />
  </sodipodi:namedview>
  <metadata
     id="metadata5">
    <rdf:RDF>
      <cc:Work
         rdf:about="">
        <dc:format>image/svg+xml</dc:format>
        <dc:type
           rdf:resource="http://purl.org/dc/dcmitype/StillImage" />
        <dc:title />
      </cc:Work>
    </rdf:RDF>
  </metadata>
  <g
     transform="translate(-7.2604167,-6.9958336)"
     id="layer1"
     inkscape:groupmode="layer"
     inkscape:label="Layer 1">
    <g
       id="g867"
       transform="matrix(0.8519568,0,0,0.8519568,3.0333435,2.9941734)">
      <g
         aria-label="ICFPC  2021"
         id="text14"
         style="font-style:normal;font-variant:normal;font-weight:normal;font-stretch:normal;font-size:10.5833px;line-height:0.45;font-family:Iosevka;-inkscape-font-specification:'Iosevka, Normal';font-variant-ligatures:normal;font-variant-caps:normal;font-variant-numeric:normal;font-variant-east-asian:normal;text-align:end;text-anchor:end;fill:#eeeeee;fill-opacity:1;stroke:none;stroke-width:0.264583"
         transform="matrix(0.85345157,0,0,0.85345157,1.888913,3.6956833)">
        <path
           d="m 9.2693456,18.380959 h 3.7041554 v -0.761998 h -1.428746 v -6.25473 h 1.428746 V 10.602233 H 9.2693456 v 0.761998 h 1.4287454 v 6.25473 H 9.2693456 Z"
           style="font-style:normal;font-variant:normal;font-weight:normal;font-stretch:normal;font-size:10.5833px;font-family:Iosevka;-inkscape-font-specification:'Iosevka, Normal';font-variant-ligatures:normal;font-variant-caps:normal;font-variant-numeric:normal;font-variant-east-asian:normal;text-align:end;text-anchor:end;fill:#eeeeee;fill-opacity:1;stroke-width:0.264583"
           id="path33" />
        <path
           d="m 16.391886,18.465625 q 0.391582,0 0.772581,-0.105833 0.380999,-0.105833 0.677331,-0.370416 0.306916,-0.264582 0.455082,-0.634998 0.148166,-0.370415 0.148166,-0.761997 0,0 0,-0.01058 h -0.846664 q 0,0 0,0.01058 0,0.232833 -0.08467,0.455082 -0.08467,0.211666 -0.264582,0.370415 -0.179917,0.15875 -0.402166,0.22225 -0.222249,0.0635 -0.455082,0.0635 -0.264582,0 -0.518581,-0.09525 -0.254,-0.09525 -0.423332,-0.306916 -0.15875,-0.211666 -0.22225,-0.465665 -0.0635,-0.253999 -0.0635,-0.518582 v -3.651238 q 0,-0.264583 0.0635,-0.518582 0.0635,-0.253999 0.22225,-0.465665 0.169332,-0.211666 0.423332,-0.306916 0.253999,-0.09525 0.518581,-0.09525 0.232833,0 0.455082,0.0635 0.222249,0.0635 0.402166,0.22225 0.179916,0.158749 0.264582,0.380998 0.08467,0.211666 0.08467,0.444499 0,0.01058 0,0.01058 h 0.846664 q 0,-0.01058 0,-0.01058 0,-0.391582 -0.148166,-0.761998 -0.148166,-0.370415 -0.455082,-0.634998 -0.296332,-0.264582 -0.677331,-0.370415 -0.380999,-0.105833 -0.772581,-0.105833 -0.349249,0 -0.687914,0.08467 -0.328082,0.07408 -0.603248,0.275166 -0.275166,0.201083 -0.465665,0.497415 -0.179917,0.285749 -0.254,0.624415 -0.0635,0.328082 -0.0635,0.666748 v 3.651238 q 0,0.338666 0.0635,0.677331 0.07408,0.328083 0.254,0.624415 0.190499,0.285749 0.465665,0.486832 0.275166,0.201082 0.603248,0.275166 0.338665,0.08467 0.687914,0.08467 z"
           style="font-style:normal;font-variant:normal;font-weight:normal;font-stretch:normal;font-size:10.5833px;font-family:Iosevka;-inkscape-font-specification:'Iosevka, Normal';font-variant-ligatures:normal;font-variant-caps:normal;font-variant-numeric:normal;font-variant-east-asian:normal;text-align:end;text-anchor:end;fill:#eeeeee;fill-opacity:1;stroke-width:0.264583"
           id="path35" />
        <path
           d="m 20.011355,18.380959 h 0.846664 V 14.63447 h 2.254243 v -0.761997 h -2.254243 v -2.508242 h 2.857491 v -0.761998 h -3.704155 z"
           style="font-style:normal;font-variant:normal;font-weight:normal;font-stretch:normal;font-size:10.5833px;font-family:Iosevka;-inkscape-font-specification:'Iosevka, Normal';font-variant-ligatures:normal;font-variant-caps:normal;font-variant-numeric:normal;font-variant-east-asian:normal;text-align:end;text-anchor:end;fill:#eeeeee;fill-opacity:1;stroke-width:0.264583"
           id="path37" />
        <path
           d="m 25.144235,18.380959 h 0.846664 v -3.20674 h 0.96308 q 0.328083,0 0.645582,-0.05292 0.328082,-0.05292 0.624414,-0.201082 0.306916,-0.148167 0.529165,-0.391583 0.232833,-0.243415 0.328082,-0.560914 0.09525,-0.317499 0.09525,-0.645582 v -0.86783 q 0,-0.328083 -0.09525,-0.645582 -0.09525,-0.317499 -0.328082,-0.560914 -0.222249,-0.243416 -0.529165,-0.391582 -0.296332,-0.148167 -0.624414,-0.201083 -0.317499,-0.05292 -0.645582,-0.05292 h -1.809744 z m 0.846664,-3.968738 v -3.04799 h 0.96308 q 0.243416,0 0.486832,0.05292 0.253999,0.04233 0.465665,0.1905 0.211666,0.137583 0.317499,0.370415 0.105833,0.232833 0.105833,0.476249 v 0.86783 q 0,0.243416 -0.105833,0.476249 -0.105833,0.232832 -0.317499,0.380999 -0.211666,0.137582 -0.465665,0.190499 -0.243416,0.04233 -0.486832,0.04233 z"
           style="font-style:normal;font-variant:normal;font-weight:normal;font-stretch:normal;font-size:10.5833px;font-family:Iosevka;-inkscape-font-specification:'Iosevka, Normal';font-variant-ligatures:normal;font-variant-caps:normal;font-variant-numeric:normal;font-variant-east-asian:normal;text-align:end;text-anchor:end;fill:#eeeeee;fill-opacity:1;stroke-width:0.264583"
           id="path39" />
        <path
           d="m 32.266776,18.465625 q 0.391582,0 0.772581,-0.105833 0.380998,-0.105833 0.677331,-0.370416 0.306915,-0.264582 0.455082,-0.634998 0.148166,-0.370415 0.148166,-0.761997 0,0 0,-0.01058 h -0.846664 q 0,0 0,0.01058 0,0.232833 -0.08467,0.455082 -0.08467,0.211666 -0.264582,0.370415 -0.179916,0.15875 -0.402165,0.22225 -0.22225,0.0635 -0.455082,0.0635 -0.264583,0 -0.518582,-0.09525 -0.253999,-0.09525 -0.423332,-0.306916 -0.15875,-0.211666 -0.222249,-0.465665 -0.0635,-0.253999 -0.0635,-0.518582 v -3.651238 q 0,-0.264583 0.0635,-0.518582 0.0635,-0.253999 0.222249,-0.465665 0.169333,-0.211666 0.423332,-0.306916 0.253999,-0.09525 0.518582,-0.09525 0.232832,0 0.455082,0.0635 0.222249,0.0635 0.402165,0.22225 0.179916,0.158749 0.264582,0.380998 0.08467,0.211666 0.08467,0.444499 0,0.01058 0,0.01058 h 0.846664 q 0,-0.01058 0,-0.01058 0,-0.391582 -0.148166,-0.761998 -0.148167,-0.370415 -0.455082,-0.634998 -0.296333,-0.264582 -0.677331,-0.370415 -0.380999,-0.105833 -0.772581,-0.105833 -0.349249,0 -0.687915,0.08467 -0.328082,0.07408 -0.603248,0.275166 -0.275166,0.201083 -0.465665,0.497415 -0.179916,0.285749 -0.253999,0.624415 -0.0635,0.328082 -0.0635,0.666748 v 3.651238 q 0,0.338666 0.0635,0.677331 0.07408,0.328083 0.253999,0.624415 0.190499,0.285749 0.465665,0.486832 0.275166,0.201082 0.603248,0.275166 0.338666,0.08467 0.687915,0.08467 z"
           style="font-style:normal;font-variant:normal;font-weight:normal;font-stretch:normal;font-size:10.5833px;font-family:Iosevka;-inkscape-font-specification:'Iosevka, Normal';font-variant-ligatures:normal;font-variant-caps:normal;font-variant-numeric:normal;font-variant-east-asian:normal;text-align:end;text-anchor:end;fill:#eeeeee;fill-opacity:1;stroke-width:0.264583"
           id="path41" />
        <path
           d="M 14.402226,27.905928 H 18.42388 V 27.14393 h -3.14324 q 0.05292,-0.507998 0.264582,-0.973663 0.222249,-0.476249 0.582082,-0.836081 0.359832,-0.370415 0.772581,-0.666748 0.423331,-0.306915 0.793747,-0.656164 0.370415,-0.359832 0.571498,-0.836081 0.201083,-0.486832 0.201083,-0.99483 0,-0.338666 -0.07408,-0.666748 -0.0635,-0.338666 -0.243416,-0.624415 -0.179916,-0.285749 -0.455082,-0.486831 -0.275166,-0.201083 -0.613831,-0.275166 -0.328083,-0.08467 -0.656165,-0.08467 -0.391582,0 -0.772581,0.105833 -0.380999,0.105833 -0.677331,0.370416 -0.296332,0.264582 -0.444499,0.634998 -0.148166,0.370415 -0.148166,0.761997 0,0 0,0 h 0.846664 q 0,0 0,0 0,-0.232832 0.08467,-0.444498 0.08467,-0.222249 0.253999,-0.380999 0.169333,-0.158749 0.391582,-0.222249 0.232832,-0.0635 0.465665,-0.0635 0.253999,0 0.497415,0.09525 0.253999,0.09525 0.412749,0.306915 0.169333,0.201083 0.222249,0.455082 0.0635,0.253999 0.0635,0.518582 0,0.433915 -0.1905,0.836081 -0.190499,0.391582 -0.518581,0.677331 -0.328082,0.275166 -0.687915,0.529165 -0.349249,0.243416 -0.666748,0.539748 -0.317499,0.296332 -0.560914,0.656165 -0.243416,0.359832 -0.380999,0.77258 -0.137583,0.412749 -0.179916,0.846664 -0.03175,0.423332 -0.03175,0.857248 z"
           style="font-style:normal;font-variant:normal;font-weight:normal;font-stretch:normal;font-size:10.5833px;font-family:Iosevka;-inkscape-font-specification:'Iosevka, Normal';font-variant-ligatures:normal;font-variant-caps:normal;font-variant-numeric:normal;font-variant-east-asian:normal;text-align:end;text-anchor:end;fill:#eeeeee;fill-opacity:1;stroke-width:0.264583"
           id="path43" />
        <path
           d="m 21.704683,27.990594 q 0.349248,0 0.687914,-0.08467 0.338666,-0.07408 0.613831,-0.285749 0.285749,-0.211666 0.465666,-0.507998 0.190499,-0.296333 0.253999,-0.634998 0.07408,-0.338666 0.07408,-0.687915 v -3.545405 q 0,-0.349249 -0.07408,-0.687915 -0.0635,-0.338665 -0.253999,-0.634998 -0.179917,-0.306915 -0.465666,-0.507998 -0.275165,-0.211666 -0.613831,-0.285749 -0.338666,-0.08467 -0.687914,-0.08467 -0.349249,0 -0.687915,0.08467 -0.338666,0.07408 -0.624415,0.285749 -0.275165,0.201083 -0.465665,0.507998 -0.179916,0.296333 -0.253999,0.634998 -0.0635,0.338666 -0.0635,0.687915 v 3.545405 q 0,0.349249 0.0635,0.687915 0.07408,0.338665 0.253999,0.634998 0.1905,0.296332 0.465665,0.507998 0.285749,0.211666 0.624415,0.285749 0.338666,0.08467 0.687915,0.08467 z m 0,-0.761997 q -0.275166,0 -0.529165,-0.09525 -0.254,-0.105833 -0.423332,-0.317499 -0.169333,-0.222249 -0.232833,-0.486832 -0.0635,-0.264582 -0.0635,-0.539748 v -0.275166 l 2.497659,-1.979077 v 2.254243 q 0,0.275166 -0.0635,0.539748 -0.0635,0.264583 -0.232833,0.486832 -0.169332,0.211666 -0.423332,0.317499 -0.253999,0.09525 -0.529164,0.09525 z m -1.24883,-2.730492 v -2.254242 q 0,-0.275166 0.0635,-0.539749 0.0635,-0.264582 0.232833,-0.476248 0.169332,-0.222249 0.423332,-0.317499 0.253999,-0.105833 0.529165,-0.105833 0.275165,0 0.529164,0.105833 0.254,0.09525 0.423332,0.317499 0.169333,0.211666 0.232833,0.476248 0.0635,0.264583 0.0635,0.539749 v 0.275165 z"
           style="font-style:normal;font-variant:normal;font-weight:normal;font-stretch:normal;font-size:10.5833px;font-family:Iosevka;-inkscape-font-specification:'Iosevka, Normal';font-variant-ligatures:normal;font-variant-caps:normal;font-variant-numeric:normal;font-variant-east-asian:normal;text-align:end;text-anchor:end;fill:#eeeeee;fill-opacity:1;stroke-width:0.264583"
           id="path45" />
        <path
           d="m 24.985485,27.905928 h 4.021654 V 27.14393 h -3.14324 q 0.05292,-0.507998 0.264583,-0.973663 0.222249,-0.476249 0.582081,-0.836081 0.359832,-0.370415 0.772581,-0.666748 0.423332,-0.306915 0.793748,-0.656164 0.370415,-0.359832 0.571498,-0.836081 0.201082,-0.486832 0.201082,-0.99483 0,-0.338666 -0.07408,-0.666748 -0.0635,-0.338666 -0.243416,-0.624415 -0.179916,-0.285749 -0.455081,-0.486831 -0.275166,-0.201083 -0.613832,-0.275166 -0.328082,-0.08467 -0.656164,-0.08467 -0.391582,0 -0.772581,0.105833 -0.380999,0.105833 -0.677331,0.370416 -0.296333,0.264582 -0.444499,0.634998 -0.148166,0.370415 -0.148166,0.761997 0,0 0,0 h 0.846664 q 0,0 0,0 0,-0.232832 0.08467,-0.444498 0.08467,-0.222249 0.253999,-0.380999 0.169333,-0.158749 0.391582,-0.222249 0.232833,-0.0635 0.465666,-0.0635 0.253999,0 0.497415,0.09525 0.253999,0.09525 0.412748,0.306915 0.169333,0.201083 0.22225,0.455082 0.0635,0.253999 0.0635,0.518582 0,0.433915 -0.190499,0.836081 -0.190499,0.391582 -0.518582,0.677331 -0.328082,0.275166 -0.687914,0.529165 -0.349249,0.243416 -0.666748,0.539748 -0.317499,0.296332 -0.560915,0.656165 -0.243416,0.359832 -0.380999,0.77258 -0.137583,0.412749 -0.179916,0.846664 -0.03175,0.423332 -0.03175,0.857248 z"
           style="font-style:normal;font-variant:normal;font-weight:normal;font-stretch:normal;font-size:10.5833px;font-family:Iosevka;-inkscape-font-specification:'Iosevka, Normal';font-variant-ligatures:normal;font-variant-caps:normal;font-variant-numeric:normal;font-variant-east-asian:normal;text-align:end;text-anchor:end;fill:#eeeeee;fill-opacity:1;stroke-width:0.264583"
           id="path47" />
        <path
           d="m 32.182109,27.905928 h 0.846664 v -7.778725 h -0.846664 l -1.92616,1.322912 0.476248,0.634998 1.449912,-1.005413 z"
           style="font-style:normal;font-variant:normal;font-weight:normal;font-stretch:normal;font-size:10.5833px;font-family:Iosevka;-inkscape-font-specification:'Iosevka, Normal';font-variant-ligatures:normal;font-variant-caps:normal;font-variant-numeric:normal;font-variant-east-asian:normal;text-align:end;text-anchor:end;fill:#eeeeee;fill-opacity:1;stroke-width:0.264583"
           id="path49" />
      </g>
      <g
         transform="matrix(0.89587065,0,0,0.84820229,0.44822275,5.69829)"
         style="font-style:normal;font-variant:normal;font-weight:normal;font-stretch:normal;font-size:10.5833px;line-height:0.45;font-family:Iosevka;-inkscape-font-specification:'Iosevka, Normal';font-variant-ligatures:normal;font-variant-caps:normal;font-variant-numeric:normal;font-variant-east-asian:normal;text-align:end;text-anchor:end;fill:#eeeeee;fill-opacity:1;stroke:none;stroke-width:0.264583"
         id="g70"
         aria-label="ICFPC  2021">
        <path
           id="path66"
           style="font-style:normal;font-variant:normal;font-weight:normal;font-stretch:normal;font-size:10.5833px;font-family:Iosevka;-inkscape-font-specification:'Iosevka, Normal';font-variant-ligatures:normal;font-variant-caps:normal;font-variant-numeric:normal;font-variant-east-asian:normal;text-align:end;text-anchor:end;fill:#eeeeee;fill-opacity:1;stroke-width:0.264583"
           d="M 34.292985,27.905928 V 27.14393 H 10.453606 v 0.761998 z"
           sodipodi:nodetypes="ccccc" />
      </g>
      <g
         aria-label="ICFPC  2021"
         id="g74"
         style="font-style:normal;font-variant:normal;font-weight:normal;font-stretch:normal;font-size:10.5833px;line-height:0.45;font-family:Iosevka;-inkscape-font-specification:'Iosevka, Normal';font-variant-ligatures:normal;font-variant-caps:normal;font-variant-numeric:normal;font-variant-east-asian:normal;text-align:end;text-anchor:end;fill:#eeeeee;fill-opacity:1;stroke:none;stroke-width:0.264583"
         transform="matrix(0.89585409,0,0,0.84820229,0.43494491,-11.94171)">
        <path
           sodipodi:nodetypes="ccccc"
           d="M 34.292985,27.905928 V 27.14393 H 10.453606 v 0.761998 z"
           style="font-style:normal;font-variant:normal;font-weight:normal;font-stretch:normal;font-size:10.5833px;font-family:Iosevka;-inkscape-font-specification:'Iosevka, Normal';font-variant-ligatures:normal;font-variant-caps:normal;font-variant-numeric:normal;font-variant-east-asian:normal;text-align:end;text-anchor:end;fill:#eeeeee;fill-opacity:1;stroke-width:0.264583"
           id="path72" />
      </g>
      <g
         aria-label="λ"
         id="text78"
         style="font-style:normal;font-variant:normal;font-weight:normal;font-stretch:normal;font-size:4.37048px;line-height:1.25;font-family:FreeSerif;-inkscape-font-specification:'FreeSerif, Normal';font-variant-ligatures:normal;font-variant-caps:normal;font-variant-numeric:normal;font-variant-east-asian:normal;fill:#eeeeee;fill-opacity:1;stroke:none;stroke-width:0.109262">
        <path
           d="m 12.09404,25.973622 q 0,0.441419 -0.292822,0.441419 -0.0743,0 -0.139855,-0.03933 -0.06119,-0.03496 -0.100521,-0.07867 -0.03496,-0.0437 -0.06993,-0.126744 -0.03496,-0.08741 -0.04808,-0.126744 -0.01311,-0.0437 -0.03496,-0.135485 l -0.253488,-0.992099 h -0.0087 l -0.559421,1.45974 h -0.371491 l 0.777945,-1.971086 q -0.0087,-0.02622 -0.03496,-0.139855 -0.02622,-0.113633 -0.05245,-0.183561 -0.02185,-0.06993 -0.06556,-0.161707 -0.03933,-0.09178 -0.104891,-0.135485 -0.06556,-0.04808 -0.148596,-0.04808 -0.157338,0 -0.222895,0.231635 h -0.08304 v -0.0743 q 0,-0.18356 0.07867,-0.323416 0.07867,-0.139855 0.253488,-0.139855 0.06993,0 0.131114,0.03933 0.06119,0.03934 0.100521,0.08741 0.03933,0.04807 0.07867,0.144226 0.03933,0.09178 0.05245,0.144226 0.01748,0.04808 0.04371,0.157337 0.03059,0.104891 0.03496,0.118003 l 0.428307,1.494704 q 0.08304,0.301563 0.166078,0.393343 0.06993,0.07867 0.161708,0.07867 0.09178,0 0.139855,-0.07867 0.05245,-0.08304 0.05682,-0.174819 h 0.08741 z"
           style="font-style:normal;font-variant:normal;font-weight:normal;font-stretch:normal;font-size:4.37048px;font-family:FreeSerif;-inkscape-font-specification:'FreeSerif, Normal';font-variant-ligatures:normal;font-variant-caps:normal;font-variant-numeric:normal;font-variant-east-asian:normal;fill:#eeeeee;fill-opacity:1;stroke-width:0.109262"
           id="path129" />
      </g>
      <g
         aria-label="λ"
         transform="scale(-1)"
         id="text82"
         style="font-style:normal;font-variant:normal;font-weight:normal;font-stretch:normal;font-size:4.37048px;line-height:1.25;font-family:FreeSerif;-inkscape-font-specification:'FreeSerif, Normal';font-variant-ligatures:normal;font-variant-caps:normal;font-variant-numeric:normal;font-variant-east-asian:normal;fill:none;fill-opacity:1;stroke:#eeeeee;stroke-width:0.109262;stroke-opacity:1">
        <path
           d="m -10.685113,-22.94914 q 0,0.441419 -0.292822,0.441419 -0.0743,0 -0.139855,-0.03933 -0.06119,-0.03496 -0.100521,-0.07867 -0.03496,-0.0437 -0.06993,-0.126744 -0.03496,-0.08741 -0.04807,-0.126744 -0.01311,-0.04371 -0.03496,-0.135485 l -0.253488,-0.992099 h -0.0087 l -0.559421,1.459741 h -0.371491 l 0.777945,-1.971087 q -0.0087,-0.02622 -0.03496,-0.139855 -0.02622,-0.113633 -0.05245,-0.18356 -0.02185,-0.06993 -0.06556,-0.161708 -0.03934,-0.09178 -0.104892,-0.135485 -0.06556,-0.04807 -0.148596,-0.04807 -0.157338,0 -0.222895,0.231635 h -0.08304 v -0.0743 q 0,-0.18356 0.07867,-0.323416 0.07867,-0.139855 0.253488,-0.139855 0.06993,0 0.131114,0.03933 0.06119,0.03933 0.100521,0.08741 0.03933,0.04808 0.07867,0.144226 0.03933,0.09178 0.05245,0.144226 0.01748,0.04808 0.0437,0.157337 0.03059,0.104891 0.03496,0.118003 l 0.428307,1.494704 q 0.08304,0.301563 0.166078,0.393343 0.06993,0.07867 0.161708,0.07867 0.09178,0 0.139856,-0.07867 0.05245,-0.08304 0.05682,-0.174819 h 0.08741 z"
           style="font-style:normal;font-variant:normal;font-weight:normal;font-stretch:normal;font-size:4.37048px;font-family:FreeSerif;-inkscape-font-specification:'FreeSerif, Normal';font-variant-ligatures:normal;font-variant-caps:normal;font-variant-numeric:normal;font-variant-east-asian:normal;fill:none;fill-opacity:1;stroke:#eeeeee;stroke-width:0.109262;stroke-opacity:1"
           id="path126" />
      </g>
    </g>
  </g>
</svg>
