<?xml version='1.0' ?>
<svg xmlns="http://www.w3.org/2000/svg" viewBox="16 16 158 129">
  <path d="M 29,135 L 71,90 L 26,26 L 77,26 L 164,135 L 119,135 L 98,116 L 79,135 Z" id="hole" style="fill:none;stroke:#000000" />
  <g id="figure" style="fill:none;stroke:#ff0000">
    <path d="M 63,53 L 74,42" />
    <path d="M 74,42 L 93,79" />
    <path d="M 93,79 L 77,87" />
    <path d="M 77,87 L 63,53" />
    <path d="M 93,79 L 130,106" />
    <path d="M 130,106 L 119,127" />
    <path d="M 119,127 L 93,98" />
    <path d="M 93,98 L 93,79" />
    <path d="M 77,87 L 77,101" />
    <path d="M 77,101 L 93,98" />
    <path d="M 93,98 L 77,130" />
    <path d="M 77,130 L 64,127" />
    <path d="M 64,127 L 77,101" />
    <path d="M 77,101 L 71,98" />
    <path d="M 71,98 L 77,87" />
  </g>
</svg>
